# xmcd
# 
# Track frame offsets:
#     150
#     25111
#     41730
#     52035
# 
# Disc length: 1038
# 
# Revision: 0
# Processed by: cddbd v1.5.2PL0 Copyright (c) Steve Scherf et al.
# Submitted via: BonkEnc v1.0.6
# 
DISCID=2e040c04
DTITLE=And You Will Know Us By the Trail of Dead - Festival Thyme
DYEAR=2008
DGENRE=
TTITLE0=The Bells of Creation (Machete Mix)
TTITLE1=Inland Sea (Edit)
TTITLE2=Festival Thyme
TTITLE3=The Betrayal of Roger Casement and the Irish Brigade
EXTD=
EXTT0=
EXTT1=
EXTT2=
EXTT3=
PLAYORDER=
